<?xml version="1.0" encoding="UTF-8"?>
<svg id="Logo" xmlns="http://www.w3.org/2000/svg" viewBox="0 0 1025 1025">
  <g id="paths">
    <path id="c" d="M740.58,498.61v-133.32c0-9.97-11.19-18.06-25-18.06h-177.74c-13.81,0-25,8.08-25,18.06v478.45c0,19.95,22.39,36.12,50,36.12h127.8c27.61,0,50-16.17,50-36.12v-135.82" style="fill: none; stroke: #514d83; stroke-miterlimit: 10; stroke-width: 50px;"/>
    <path id="club2" d="M609.73,347.24c2.14-108.57,2.99-188.46,2.56-208.51-.07-3.14-.28-10.19-3.34-18.51-4.82-13.11-13.95-21.97-21.27-27.53-8.85-5.48-21.65-12.27-38.02-17.27-19.85-6.06-56.29-17.24-71.29,0-13.85,15.91-1.19,45.95,0,48.69,9.17,21.05,27.19,30.33,34.01,33.71,27.07,13.43,53.42,6.44,60.57,4.28" style="fill: none; stroke: #514d83; stroke-miterlimit: 10; stroke-width: 20px;"/>
    <path id="club1" d="M674.18,347.24c-1.31-86.63-1.84-150.37-1.57-166.37.04-2.5.17-8.13,2.05-14.77,2.96-10.46,8.57-17.53,13.06-21.97,5.43-4.37,13.3-9.79,23.35-13.78,12.19-4.84,34.57-13.75,43.78,0,7.43,11.09,7.67,28.02,0,38.85-2.95,4.17-6.49,6.78-17.98,12.69-9.44,4.85-22.95,11.26-40.1,17.63" style="fill: none; stroke: #514d83; stroke-miterlimit: 10; stroke-width: 20px;"/>
    <path id="s" d="M504.22,379.86c-79.56,45.4-177.2,116.05-175,199.94,2.94,112.23,182.43,167.91,170.14,249.71-13.54,90.19-214.68,152.99-237.49,121.2-19.38-27.02,76.34-142.52,183.33-212.49,24.16-15.8,37.63-21.92,85.5-47.18,94.75-50.01,171.98-94.69,227.9-128.18" style="fill: none; stroke: #514d83; stroke-miterlimit: 10; stroke-width: 25px;"/>
  </g>
  <polygon id="flag" points="765.63 659.8 706.92 625.91 765.63 592.01 765.63 659.8" style="fill: #514d83;"/>
</svg>