<?xml version='1.0' encoding='utf-8'?>
<svg fill="#5051b" xmlns="http://www.w3.org/2000/svg" version="1.1" id="Layer_1" x="0px" y="0px" viewBox="0 0 5000 548.507" enable-background="new 0 0 5000 548.507"> <g> <g> <path d="M929.858,388.778c0-2.429,1.542-4.45,3.424-4.491c14.154-0.306,36.767-37.489,39.288-64.599 c3.039-32.7-22.755-71.48-53.717-80.755c-5.995-1.795-10.895-4.302-10.895-5.569l0,0c0-9.696,33.639,3.272,50.944,19.637 c16.703,15.794,22.968,17.356,22.968,5.725c0-7.73,3.962-11.243,12.682-11.243c6.071,0,12.756,18.535,10.893,30.189 c-3.416,21.362,14.751,24.807,14.751,8.257c0-24.239,57.457-24.789,82.836-34.943c23.943-9.579,26.214,23.894,3.183,46.922 c-12.427,12.429-17.58,15.249-17.58,9.618c0-7.191-15.057-1.18-15.925,6.357c-1.026,8.913,5.069,12.427,14.056,8.104 c3.287-1.579,8.44-3.498,11.45-4.263c3.01-0.765,12.867-4.477,21.899-8.251c18.81-7.856,31.577-7.829,43.8-8.608 c-1.03,12.956-0.65,8.17-1.682,21.136l24.11-1.875c24.622-1.915,56.953,1.536,62.039,6.622c4.851,4.851,0.716,5.382-19.789,2.542 c-40.752-5.647-107.008,4.919-165.968,26.469c-71.682,26.199-85.509,29.294-91.072,20.388c-3.703-5.929-7.979-6.807-14.146-2.904 c-3.303,2.091-3.344,3.194-0.253,6.918c4.982,6.005,1.345,8.837-14.297,11.127C931.935,392.893,929.858,392.49,929.858,388.778z M4057.143,391.287c-15.641-2.291-19.279-5.123-14.297-11.127c3.091-3.724,3.05-4.826-0.253-6.918 c-6.167-3.903-10.443-3.025-14.146,2.904c-5.563,8.906-19.391,5.812-91.072-20.388c-58.96-21.549-125.216-32.115-165.968-26.469 c-20.505,2.84-24.64,2.309-19.789-2.542c5.086-5.086,37.417-8.536,62.039-6.622l24.11,1.875 c-1.032-12.966-0.652-8.181-1.682-21.136c12.223,0.779,24.99,0.753,43.8,8.608c9.032,3.774,18.888,7.486,21.899,8.251 c3.01,0.765,8.164,2.684,11.45,4.263c8.987,4.323,15.082,0.808,14.056-8.104c-0.869-7.537-15.926-13.548-15.926-6.357 c0,5.631-5.153,2.811-17.58-9.618c-23.031-23.028-20.76-56.501,3.183-46.922c25.378,10.155,82.835,10.704,82.835,34.943 c0,16.55,18.167,13.106,14.751-8.257c-1.864-11.654,4.822-30.189,10.893-30.189c8.72,0,12.682,3.512,12.682,11.243 c0,11.631,6.266,10.068,22.969-5.725c17.305-16.365,50.944-29.333,50.944-19.637l0,0c0,1.267-4.9,3.774-10.895,5.569 c-30.962,9.275-56.756,48.055-53.717,80.755c2.521,27.11,25.134,64.293,39.289,64.599c1.882,0.041,3.424,2.063,3.424,4.491 C4070.142,392.49,4068.065,392.893,4057.143,391.287z M639.681,181.659c0,2.677-22.38,20.772-28.229,22.823 c-2.217,0.777-1.611,2.992,1.904,6.951c6.766,7.625,7.596,25.918,1.236,27.219c-2.714,0.555-5.279-1.345-6.344-4.699 c-1.224-3.856-4.101-5.618-9.13-5.589c-14.418,0.082-15.23,2.198-15.4,40.019c-0.157,34.918-0.167,34.98-7,36.88 c-13.877,3.86-31.304,2.532-39.693-3.025c-12.637-8.368-21.518-7.208-26.197,3.422c-7.43,16.881-56.793,44.722-35.408,9.649 c10.537-17.285,3.224-27.731-13.03-18.617c-63.065,35.363-261.128,39.982-306.043,7.138c-10.102-7.385-1.258-7.835,14.552-0.74 c84.845,38.075,284.561-12.538,444.278-112.593C615.174,191.322,639.681,173.108,639.681,181.659z M4384.823,190.496 c159.716,100.055,359.433,150.668,444.277,112.593c15.81-7.095,24.653-6.644,14.552,0.74 c-44.915,32.844-242.978,28.225-306.043-7.138c-16.254-9.114-23.567,1.332-13.029,18.617c21.386,35.073-27.978,7.232-35.408-9.649 c-4.678-10.63-13.56-11.79-26.197-3.422c-8.389,5.557-25.816,6.885-39.693,3.025c-6.833-1.9-6.843-1.962-7-36.88 c-0.17-37.82-0.982-39.936-15.4-40.019c-5.029-0.029-7.906,1.734-9.13,5.589c-1.065,3.354-3.63,5.254-6.344,4.699 c-6.36-1.302-5.529-19.594,1.236-27.219c3.515-3.959,4.121-6.173,1.904-6.951c-5.849-2.05-28.229-20.145-28.229-22.823 C4360.319,173.108,4384.826,191.322,4384.823,190.496z M1637.888,339.193c-0.273-0.173-138.603-83.436-146.444-91.045 c-5.257-5.1-29.528-16.044-31.5-19.24c-2.075-3.358-46.286-23.493-57.375-32.574c-11.16-9.141-8.125-3.116-25.219-11.93 c-67.935-35.03-162.778-61.461-162.778-65.876l0,0c0-3.068,4.006-2.213,54.165,11.574c76.218,20.951,93.62,29.681,144.99,49.042 c21.564,8.127,28.56,13.589,17.404,13.589c-5.386,0-9.666,6.86-6.984,11.197c2.846,4.604,26.656,3.058,24.864-1.616 c-2.123-5.532,1.866-5.168,14.601,1.33c14.089,7.187,16.12,10.99,5.873,10.99c-9.24,0-13.93,4.849-8.203,8.477 c5.378,3.405,16.092,3.035,16.092-0.557c0-1.668,1.849-2.283,4.107-1.367c2.258,0.913,5.892,2.385,8.075,3.272 c2.68,1.088,5.223-1.392,7.831-7.638c8.799-21.06,42.948-27.34,42.948-7.899c0,8.577,6.303,10.955,28.922,10.903 c34.118-0.076,58.095,15.082,45.336,28.661c-15.041,16.007,1.524,56.137,37.45,90.729 C1671.764,358.193,1668.142,358.187,1637.888,339.193z M3347.956,339.214c35.926-34.592,52.491-74.721,37.45-90.729 c-12.759-13.579,11.218-28.737,45.336-28.661c22.619,0.051,28.922-2.326,28.922-10.903c0-19.442,34.149-13.161,42.948,7.899 c2.608,6.245,5.151,8.725,7.831,7.638c2.183-0.886,5.817-2.359,8.075-3.272c2.258-0.915,4.107-0.3,4.107,1.367 c0,3.593,10.714,3.963,16.092,0.557c5.728-3.628,1.037-8.477-8.203-8.477c-10.247,0-8.216-3.802,5.873-10.99 c12.735-6.498,16.724-6.862,14.601-1.33c-1.791,4.674,22.019,6.221,24.864,1.616c2.682-4.337-1.598-11.197-6.984-11.197 c-11.157,0-4.16-5.462,17.404-13.589c51.37-19.362,68.772-28.091,144.99-49.042c50.158-13.786,54.165-14.642,54.165-11.574l0,0 c0,4.415-94.843,30.847-162.778,65.876c-17.093,8.814-14.059,2.789-25.219,11.93c-11.089,9.081-55.3,29.216-57.375,32.574 c-1.972,3.196-26.244,14.14-31.5,19.24c-7.841,7.609-146.171,90.873-146.444,91.045 C3331.858,358.187,3328.236,358.193,3347.956,339.214z M1764.35,419.356c-7.816,1.557-54.961-12.707-102.191-30.917 c-53.401-20.589-146.035-29.004-182.533-16.581c-19.343,6.585-24.151,3.883-24.151-13.571c0-11.74,11.465-21.116,19.643-16.061 c3.767,2.33,18.014-4.191,19.903-9.106c2.855-7.44-4.088-12.4-14.929-10.667c-17.462,2.793-55.695-13.571-72.321-30.948 c-9.758-10.2-7.484-13.7,5.022-7.736c22.646,10.801,25.652-8.503,14.623-13.634c-3.387-1.575-13.031-8.857-21.43-16.18 c-30.816-26.868-61.241-37.226-36.508-34.339c9.011,1.053,9.739,0.617,8.899-5.341c-1.203-8.512-15.267-10.792-20.702-3.36 c-7.177,9.815-1.635-0.321-89.715-47.969c-0.138-0.273-40.964-22.216-36.798-22.22c20.729-0.035,141.183,59.987,168.199,72.58 c63.34,29.529,171.681,102.948,187.522,109.952c7.007,3.097,34.244,22.775,36.837,22.775c4.16,0,51.052,35.003,121.941,63.166 C1758.451,414.287,1766.865,418.856,1764.35,419.356z M3254.341,409.201c70.889-28.163,117.781-63.166,121.941-63.166 c2.594,0,29.831-19.678,36.837-22.775c15.841-7.004,124.181-80.424,187.522-109.952c27.016-12.594,147.47-72.615,168.199-72.58 c4.166,0.004-36.661,21.946-36.798,22.22c-88.08,47.648-82.537,57.784-89.715,47.969c-5.435-7.432-19.499-5.151-20.702,3.36 c-0.84,5.957-0.112,6.394,8.899,5.341c24.733-2.887-5.692,7.471-36.508,34.339c-8.398,7.323-18.043,14.605-21.43,16.18 c-11.029,5.131-8.023,24.435,14.623,13.634c12.506-5.964,14.78-2.464,5.022,7.736c-16.626,17.377-54.859,33.74-72.321,30.948 c-10.842-1.734-17.784,3.227-14.929,10.667c1.889,4.915,16.135,11.436,19.903,9.106c8.177-5.055,19.643,4.321,19.643,16.061 c0,17.453-4.809,20.155-24.151,13.571c-36.498-12.423-129.132-4.008-182.533,16.581c-47.23,18.21-94.375,32.473-102.191,30.917 C3233.135,418.856,3241.549,414.287,3254.341,409.201z M2170.618,346.159c-86.628,36.064-183.361,11.615-184.69-46.677 c-0.331-14.535,2.655-19.828,15.678-27.791l0,0c14.885-9.1,22.753-4.985,13.601,7.117c-34.96,46.219,121.316,80.031,169.678,36.71 c5.741-5.141,12.034-2.266,13.93,6.367C2201.14,332.475,2198.944,334.365,2170.618,346.159z M2801.184,321.884 c1.896-8.633,8.189-11.508,13.93-6.367c48.362,43.321,204.637,9.509,169.678-36.71c-9.151-12.102-1.283-16.217,13.601-7.117l0,0 c13.023,7.962,16.009,13.256,15.678,27.791c-1.329,58.292-98.062,82.741-184.69,46.677 C2801.056,334.365,2798.86,332.475,2801.184,321.884z M2263.047,177.678c-1.505,0.93-2.737,6.052-2.737,11.382 c0,13.865-18.763,50.934-36.847,72.798c-19.931,24.095-21.864,23.826-19.536-2.737c7.105-81.119,53.729-129.349,56.41-129.349 C2265.295,129.771,2267.839,174.716,2263.047,177.678z M2739.664,129.773c2.681,0,49.305,48.23,56.41,129.349 c2.328,26.563,0.395,26.833-19.536,2.737c-18.084-21.864-36.847-58.934-36.847-72.798c0-5.33-1.232-10.453-2.737-11.382 C2732.161,174.716,2734.705,129.771,2739.664,129.773z M2500,58.357c-51.574,7.777-99.922,25.25-141.821,51.591 c-27.577,17.336-25.848,14.942-17.11,23.68c10.021,10.021,5.55,16.994,8.026,48.156c2.992,37.619-28.233,99.937-69.201,138.109 c-20.959,19.528-60.645,45.135-60.645,39.128c0-0.387-1.133-4.654-2.517-9.482c-2.431-8.479-2.057-9.065,10.932-17.056 c70.754-43.535,135.446-186.288,84.421-186.288c-17.309,0-22.849,18.052-11.781,38.384c8.066,14.821,7.531,18.629-7.105,50.587 c-17.021,37.17-75.469,96.353-83.844,84.899c-6.564-8.979-4.592-17.089,5.888-24.211c45.583-30.974,76.535-116.652,63.156-174.827 c-2.686-11.683-1.316-13.254,33.939-38.869C2361.012,46.792,2426.909,22.411,2500,13.39 c73.091,9.021,138.988,33.402,187.662,68.767c35.255,25.615,36.625,27.186,33.939,38.869 c-13.38,58.175,17.572,143.853,63.156,174.827c10.479,7.122,12.452,15.232,5.888,24.211 c-8.374,11.454-66.822-47.728-83.844-84.899c-14.636-31.957-15.171-35.766-7.105-50.587c11.068-20.332,5.528-38.384-11.781-38.384 c-51.025,0,13.667,142.753,84.421,186.288c12.989,7.991,13.363,8.578,10.932,17.056c-1.384,4.829-2.517,9.096-2.517,9.482 c0,6.007-39.686-19.6-60.645-39.128c-40.969-38.172-72.194-100.49-69.201-138.109c2.476-31.161-1.995-38.135,8.026-48.156 c8.738-8.738,10.467-6.344-17.11-23.68C2599.922,83.607,2551.574,66.134,2500,58.357z M2500,0 c-45.174,5.087-88.264,14.142-119.249,26.259c-38.795,15.172-100.912,53.116-105.185,64.252c-2.357,6.143-8.166,4.076-13.149-4.68 c-11.096-19.499-61.091-22.66-64.667-4.088c-2.126,11.039,15.806,15.831,34.271,9.153c8.405-3.039,9.661-2.704,17.303,4.619 c10.264,9.834,10.344,8.952-2.248,24.992c-55.516,70.723-53.225,124.89-54.397,169.155l-9.92,6.278 c-41.666,26.37-114.853,28.899-140.351,4.849c-11.72-11.053-11.68-13.93,0.259-18.919c23.978-10.019-2.756-34.838-33.053-30.686 c-38.437,5.269-52.104,36.054-33.658,75.815c24.612,53.05,125.493,67.515,206.895,29.666c21.435-9.968,22.072-9.918,24.272,1.806 c2.19,11.681,4.917,9.499-24.844,19.863c-132.084,46.001-295.617,25.911-371.621-45.655 c-14.307-13.472-6.242-11.459-20.254-28.143c-34.326-40.876-31.396-105.848,4.921-109.087 c20.382-1.818,43.451-32.841,24.42-32.841c-1.403,0-2.941-2.772-3.422-6.159c-4.238-29.835-65.599,14.282-69.856,50.225 c-2.064,17.445-5.474,19.475-7.689,4.58c-8.357-56.186,44.72-125.501,107.61-140.534c86.42-20.659,167.323,44.993,133.793,108.57 c-13.023,24.696-44.861,37.3-37.444,14.825c6.844-20.735-6.019-34.242-32.607-34.242c-17.334,0-26.388,6.84-31.544,23.828 c-2.441,8.047,16.034,36.397,23.719,36.397c1.285,0,5.9,2.634,10.258,5.855c23.364,17.274,77.395-4.68,85.157-34.6 c4.894-18.862,5.374-19.991,9.071-21.412c6.437-2.47,16.713,4.724,16.713,11.697c0,23.263,95.103,20.789,101.889-2.647 c1.886-6.513,5.91-14.482,8.941-17.71c13.85-14.743-8.95-51.076-23.368-37.24c-1.431,1.372-8.143,3.562-14.919,4.863 c-10.482,2.013-12.444,3.428-13.151,9.474c-1.15,9.82,6.665,12.45,14.66,4.938c14.169-13.311,32.745,1.544,22.15,17.714 c-15.127,23.088-64.402-7.52-64.663-40.167c-0.117-14.706-27.951-27.34-41.536-18.858c-8.477,5.293-12.713,3.551-21.138-8.695 c-86.764-126.108-312.221-4.01-265.832,143.962c6.719,21.43,6.735,21.151-1.252,21.151c-24.338,0-47.42,24.336-41.316,43.564 c2.28,7.189,11.469,7.465,13.708,0.413c4.545-14.321,20.875-8.195,48.09,18.039c22.008,21.214,24.519,22.849,35.144,22.849 c9.448,0,15.209,2.638,33.039,15.131c92.368,64.723,294.461,80.267,391.458,30.108c9.939-5.141,12.001-4.3,17.761,7.245 c8.536,17.114,4.13,20.916-34.044,29.372c-78.479,17.381-213.05,21.338-279.229,8.209 c-123.596-24.521-200.707-57.393-248.38-105.889c-31.766-32.313-43.949-62.874-26.487-66.444 c16.088-3.29,20.953-14.083,8.487-18.823c-3.473-1.32-9.581-6.683-13.573-11.917c-10.573-13.86-31.077-26.604-42.862-26.641 c-44.451-0.136-22.545-13.655-36.488-13.659c-3.387,0-12.639-2.464-20.561-5.474c-24.223-9.207-29.928-5.114-52.918,5.32 c-66.658-26.022-56.955-26.249-84.613-35.342c-28.268-9.295-151.729-55.144-225.087-67.19 c-13.967-2.293-30.327-5.386-36.347-6.871c-99.722-24.595-285.297-9.694-387.806,31.141c-51.382,20.47-30.978,9.096-42.711,15.187 c-13.544,7.033-96.637,46.587-101.143,52.59c-1.823,2.429-7.366,6.034-12.321,8.014c-42.83,17.12-43.399,19.267-55.82,27.505 c-46.823,31.061-137.5,62.726-142.689,62.726c-2.826,0-6.307,1.069-7.739,2.379c-3.473,3.177-45.98,12.117-64.194,16.727 c-75.749,19.178-180.678-3.951-180.678-39.827c0-10.652,9.616-13.706,16.875-5.361c13.509,15.539,32.252-6.069,19.336-22.294 c-15.074-18.938-53.406-8.705-59.325,15.835c-4.372,18.138-13.332,17.149-15.214-1.68c-1.666-16.659-15.796-21.381-27.238-9.098 c-5.176,5.554-7.957,6.163-24.661,5.39c-29.707-1.372-41.074,5.655-45.087,27.869c-2.353,13.026,1.522,18.272,13.49,18.272 c10.749,0,14.317-3.78,15.518-16.435c2.213-23.316,37.589-11.644,87.14,28.749c43.331,35.324,89.342,46.714,179.684,44.481 c57.561-1.423,75.706-4.46,139.89-23.425c18.333-5.417,19.721-3.64,8.917,11.405c-17.663,24.595,34.09,22.981,71.189-2.221 c9.423-6.402,10.19-6.468,46.176-4.037c46.207,3.122,46.375,2.947,38.482-39.747c-4.052-21.916-1.825-30.616,6.369-24.879 c17.874,12.52,40.253-16.45,32.009-41.433c-4.592-13.914-0.142-10.552,32.334-46.762c6.356-7.087,99.112-55.426,106.353-55.426 c3.681,0,3.876,0.74,1.083,4.107c-1.876,2.258-4.364,4.107-5.53,4.107c-25.453,0-82.34,59.269-91.856,95.705 C648.969,346.088,800.42,439.037,976.278,400.656c61.216-13.361,111.924-41.121,171.924-51.882 c10.147-1.82,24.361-4.413,31.585-5.766c20.034-3.747,53.425-2.764,71.725,2.114c23.581,6.282,37.952,6.303,39.182,0.055 c2.537-12.873-50.552-37.479-80.863-37.479c-4.769,0-9.698-3-14.619-8.896c-8.575-10.276-6.644-8.869-60.299-10.803l1.816-12.108 c2.07-13.813-14.352-53.056-22.201-53.056c-9.125,0-13.807-20.854-24.703-4.226c-5.289,8.072-3.249,12.439,5.81,12.439 c21.326,0,1.699,10.251-29.191,15.249c-42.956,6.949-42.55,15.347-45.419,7.247c-5.057-14.284-20.556-19.874-40.006-14.428 c-11.055,3.095-12.308,2.803-27.727-6.482c-24.972-15.037-54.967-16.236-103.962-4.154c-59.201,14.597-83.85,75.891-38.575,95.919 c11.66,5.158,11.795,5.369,8.666,13.729c-3.385,9.05,11.738,27.127,22.603,27.014c18.196-0.189,34.707-22.847,22.298-30.598 c-10.463-6.533-5.135-17.603,8.043-3.576c13.858,14.751,35.587,7.463,35.587-11.936c0-15.948-6.838-22.284-24.046-22.284 c-9.211,0-11.051-1.106-14.469-8.703c-12.456-27.674-56.489-19.211-46.665,8.968c4.782,13.717,0.092,17.35-10.116,7.839 c-31.21-29.078,29.399-70.444,81.711-55.765c102.275,28.698,65.102,139.623-46.639,139.17 c-93.523-0.38-182.343-103.518-145.089-168.479c20.704-36.101,37.981-82.285,160.146-111.637 c97.408-23.402,228.719-13.795,310.281,22.703c67.351,30.137,40.409,11.915,170.844,97.505 c42.34,27.783,45.88,30.777,40.378,34.176c-14.206,8.781,14.819,48.584,44.798,61.434c11.789,5.053,13.065,6.404,11.165,11.829 c-9.48,27.051,3.185,74.555,16.719,62.703c32.587-28.537,116.56-24.091,221.603,11.738 c55.33,18.872,122.799,33.691,195.733,42.994c84.493,10.776,282.338,5.069,365.454-24.256l24.642,25.229 c69.468,71.117,160.045,96.185,235.6,94.201c75.555,1.984,166.132-23.084,235.6-94.201l24.642-25.229 c83.115,29.325,280.96,35.032,365.454,24.256c72.934-9.303,140.402-24.122,195.733-42.994 c105.042-35.83,189.016-40.276,221.603-11.738c13.534,11.851,26.199-35.653,16.719-62.703c-1.9-5.425-0.625-6.776,11.165-11.829 c29.979-12.851,59.005-52.653,44.798-61.434c-5.501-3.399-1.962-6.394,40.378-34.176 c130.435-85.589,103.493-67.367,170.844-97.505c81.562-36.498,212.873-46.106,310.281-22.703 c122.165,29.352,139.442,75.536,160.146,111.637c37.254,64.961-51.566,168.098-145.089,168.479 c-111.74,0.452-148.914-110.473-46.639-139.17c52.312-14.679,112.921,26.687,81.71,55.765 c-10.208,9.511-14.897,5.877-10.115-7.839c9.824-28.18-34.208-36.642-46.665-8.968c-3.418,7.596-5.258,8.703-14.469,8.703 c-17.208,0-24.046,6.336-24.046,22.284c0,19.399,21.729,26.687,35.587,11.936c13.178-14.027,18.506-2.957,8.043,3.576 c-12.409,7.751,4.102,30.409,22.297,30.598c10.865,0.113,25.988-17.963,22.603-27.014c-3.13-8.359-2.994-8.571,8.666-13.729 c45.275-20.028,20.627-81.322-38.574-95.919c-48.996-12.082-78.991-10.883-103.962,4.154c-15.419,9.285-16.671,9.577-27.727,6.482 c-19.45-5.446-34.949,0.144-40.006,14.428c-2.869,8.1-2.463-0.298-45.419-7.247c-30.89-4.997-50.517-15.249-29.191-15.249 c9.059,0,11.099-4.368,5.81-12.439c-10.896-16.628-15.578,4.226-24.702,4.226c-7.849,0-24.272,39.243-22.201,53.056l1.815,12.108 c-53.655,1.933-51.724,0.526-60.299,10.803c-4.921,5.896-9.851,8.896-14.619,8.896c-30.312,0-83.401,24.605-80.863,37.479 c1.23,6.248,15.601,6.227,39.182-0.055c18.3-4.878,51.69-5.861,71.725-2.114c7.224,1.353,21.438,3.946,31.585,5.766 c60,10.761,110.707,38.521,171.923,51.882c175.858,38.382,327.309-54.568,294.375-180.667 c-9.515-36.436-66.403-95.705-91.855-95.705c-1.166,0-3.654-1.849-5.53-4.107c-2.792-3.366-2.598-4.107,1.083-4.107 c7.241,0,99.997,48.339,106.353,55.426c32.476,36.21,36.926,32.848,32.334,46.762c-8.245,24.984,14.134,53.953,32.009,41.433 c8.193-5.737,10.42,2.963,6.369,24.879c-7.893,42.694-7.725,42.869,38.482,39.747c35.986-2.431,36.753-2.365,46.176,4.037 c37.099,25.202,88.851,26.816,71.188,2.221c-10.804-15.045-9.417-16.822,8.917-11.405c64.184,18.965,82.329,22.002,139.89,23.425 c90.342,2.233,136.354-9.157,179.685-44.481c49.55-40.393,84.927-52.065,87.14-28.749c1.201,12.655,4.769,16.435,15.518,16.435 c11.968,0,15.843-5.246,13.491-18.272c-4.014-22.214-15.38-29.241-45.087-27.869c-16.705,0.773-19.485,0.165-24.662-5.39 c-11.442-12.283-25.572-7.562-27.238,9.098c-1.882,18.829-10.841,19.818-15.213,1.68c-5.918-24.54-44.251-34.773-59.325-15.835 c-12.916,16.225,5.828,37.833,19.336,22.294c7.26-8.345,16.875-5.291,16.875,5.361c0,35.877-104.928,59.006-180.677,39.827 c-18.214-4.61-60.721-13.55-64.194-16.727c-1.432-1.31-4.913-2.379-7.739-2.379c-5.189,0-95.866-31.665-142.689-62.726 c-12.421-8.238-12.99-10.385-55.82-27.505c-4.955-1.98-10.499-5.585-12.321-8.014c-4.505-6.003-87.599-45.557-101.143-52.59 c-11.732-6.091,8.671,5.283-42.71-15.187c-102.508-40.835-288.084-55.736-387.806-31.141c-6.021,1.485-22.38,4.578-36.347,6.871 c-73.357,12.047-196.819,57.895-225.087,67.19c-27.658,9.094-17.955,9.32-84.613,35.342c-22.99-10.434-28.696-14.527-52.918-5.32 c-7.922,3.011-17.174,5.474-20.561,5.474c-13.943,0.004,7.963,13.523-36.488,13.659c-11.786,0.037-32.29,12.781-42.862,26.641 c-3.991,5.234-10.099,10.597-13.573,11.917c-12.466,4.74-7.601,15.532,8.487,18.823c17.462,3.57,5.279,34.131-26.487,66.444 c-47.673,48.495-124.784,81.368-248.38,105.889c-66.178,13.128-200.75,9.172-279.229-8.209 c-38.174-8.456-42.581-12.259-34.044-29.372c5.76-11.545,7.823-12.386,17.761-7.245c96.997,50.159,299.09,34.614,391.458-30.108 c17.829-12.493,23.591-15.131,33.039-15.131c10.625,0,13.136-1.635,35.144-22.849c27.215-26.234,43.545-32.36,48.09-18.039 c2.239,7.052,11.428,6.776,13.708-0.413c6.104-19.228-16.978-43.564-41.316-43.564c-7.987,0-7.971,0.28-1.252-21.151 c46.39-147.972-179.068-270.07-265.831-143.962c-8.426,12.246-12.662,13.988-21.138,8.695 c-13.585-8.483-41.419,4.152-41.536,18.858c-0.262,32.646-49.536,63.254-64.663,40.167c-10.595-16.17,7.981-31.026,22.15-17.714 c7.995,7.512,15.81,4.882,14.66-4.938c-0.708-6.046-2.669-7.461-13.151-9.474c-6.776-1.302-13.488-3.492-14.919-4.863 c-14.418-13.836-37.218,22.498-23.368,37.24c3.031,3.229,7.056,11.197,8.941,17.71c6.786,23.435,101.889,25.909,101.889,2.647 c0-6.973,10.276-14.167,16.713-11.697c3.697,1.421,4.177,2.55,9.071,21.412c7.763,29.919,61.794,51.874,85.157,34.6 c4.358-3.22,8.972-5.855,10.258-5.855c7.685,0,26.16-28.35,23.719-36.397c-5.156-16.988-14.21-23.828-31.544-23.828 c-26.588,0-39.45,13.507-32.607,34.242c7.417,22.475-24.42,9.871-37.444-14.825c-33.53-63.577,47.373-129.229,133.793-108.57 c62.891,15.033,115.968,84.347,107.61,140.534c-2.214,14.895-5.624,12.865-7.689-4.58c-4.257-35.943-65.618-80.06-69.856-50.225 c-0.481,3.387-2.019,6.159-3.422,6.159c-19.03,0,4.039,31.024,24.42,32.841c36.317,3.239,39.247,68.21,4.921,109.087 c-14.012,16.684-5.947,14.671-20.254,28.143c-76.004,71.566-239.537,91.656-371.621,45.655 c-29.761-10.364-27.034-8.183-24.844-19.863c2.2-11.724,2.838-11.773,24.272-1.806c81.403,37.849,182.284,23.384,206.895-29.666 c18.446-39.762,4.779-70.547-33.658-75.815c-30.298-4.152-57.031,20.667-33.053,30.686c11.94,4.989,11.979,7.866,0.259,18.919 c-25.498,24.05-98.685,21.521-140.351-4.849l-9.92-6.278c-1.172-44.265,1.119-98.432-54.397-169.155 c-12.592-16.04-12.511-15.158-2.248-24.992c7.642-7.323,8.898-7.658,17.303-4.619c18.465,6.677,36.397,1.886,34.271-9.153 c-3.576-18.572-53.571-15.411-64.667,4.088c-4.983,8.756-10.792,10.823-13.149,4.68c-4.273-11.136-66.39-49.079-105.185-64.252 C2588.264,14.142,2545.174,5.087,2500,0z M2500,203.009c-104.794-1.688-196.652,85.393-162.325,169.021 c28.466,69.348,146.631,55.572,137.683-16.049c-3.171-25.377-21.157-36.027-43.397-25.697 c-22.786,10.581,19.964,10.932,19.964,38.83c0,8.166-1.809,8.713-8.571,2.593c-6.118-5.536-18.818-2.951-20.69,4.21 c-6.136,23.468-45.844,21.856-63.546-2.581c-39.235-54.163,13.721-139.777,93.392-150.991c10.599-1.492,30.223-1.958,47.49-1.614 c17.268-0.344,36.891,0.123,47.49,1.614c79.671,11.214,132.627,96.828,93.392,150.991c-17.702,24.437-57.41,26.049-63.546,2.581 c-1.872-7.161-14.572-9.746-20.69-4.21c-6.762,6.12-8.571,5.573-8.571-2.593c0-27.898,42.75-28.249,19.964-38.83 c-22.24-10.33-40.226,0.321-43.397,25.697c-8.948,71.62,109.218,85.396,137.683,16.049 C2696.652,288.402,2604.794,201.321,2500,203.009z M2500,232.39c-8.67,0.189-17.425-0.309-24.131-1.747 c-79.784-17.112-150.772,88.3-89.669,133.155c16.182,11.878,20.523,11.991,27.55,0.705c8.555-13.735,1.75-34.904-11.218-34.904 c-15.167,0-22.965-21.79-15.133-42.291c10.009-26.209,37.602-43.453,70.006-43.751l20.531-0.189l1.37,9.581 c1.957,13.696,11.626,26.944,20.695,32.915c9.069-5.972,18.738-19.219,20.695-32.915l1.37-9.581l20.531,0.189 c32.404,0.298,59.997,17.542,70.006,43.751c7.831,20.501,0.033,42.291-15.133,42.291c-12.968,0-19.773,21.169-11.218,34.904 c7.027,11.286,11.368,11.173,27.55-0.705c61.103-44.855-9.885-150.267-89.669-133.155 C2517.425,232.081,2508.67,232.579,2500,232.39z M2500,475.409c-0.535,1.37-1.001,2.772-1.382,4.19 c-6.72,24.953-61.881,37.989-111.827,26.425c-35.47-8.209-40.411-9.97-58.679-20.887c-43.821-26.191-74.082-61.907-58.915-69.535 c4.894-2.459,14.212-9.577,20.709-15.812c11.481-11.023,11.919-11.185,15.732-5.861c12.688,17.71,24.34,29.8-7.695,21.778 c-11.152-2.793-10.299,8.682,1.499,20.116c11.187,10.844,14.206,10.87,30.197,0.28c16.735-11.084,16.62-16.859-0.765-38.435 c-7.455-9.25-14.309-20.258-15.232-24.462c-3.813-17.361-13.766-17.175-23.592,0.442c-14.73,26.409-41.557,36.368-52.918,19.647 c-9.264-13.634-8.871-15.6,4.5-22.569c82.125-42.805,133.649-126.254,133.649-216.452c0-24.466,0.957-35.465,3.083-35.465 c2.861,0,36.613-12.666,65.356-24.523c16.075-6.632,31.896-8.711,54.751-14.041c0.507-0.118,1.017-0.235,1.531-0.349 c0.514,0.115,1.024,0.231,1.531,0.349c22.855,5.33,38.676,7.409,54.751,14.041c28.743,11.857,62.495,24.523,65.356,24.523 c2.126,0,3.083,11,3.083,35.465c0,90.198,51.524,173.647,133.649,216.452c13.371,6.969,13.764,8.935,4.5,22.569 c-11.362,16.721-38.188,6.762-52.918-19.647c-9.825-17.618-19.779-17.803-23.592-0.442c-0.923,4.203-7.777,15.212-15.232,24.462 c-17.385,21.576-17.5,27.351-0.765,38.435c15.991,10.591,19.01,10.564,30.197-0.28c11.798-11.434,12.651-22.909,1.499-20.116 c-32.035,8.022-20.383-4.068-7.695-21.778c3.813-5.324,4.25-5.162,15.732,5.861c6.497,6.235,15.814,13.353,20.709,15.812 c15.166,7.627-15.094,43.344-58.915,69.535c-18.268,10.918-23.209,12.678-58.679,20.887 c-49.947,11.564-105.107-1.472-111.827-26.425C2501.001,478.182,2500.535,476.78,2500,475.409z"/> <path d="M1338.38,153.932c-4.004-4.004-7.337,3.068-3.975,6.428C1338.409,164.364,1341.741,157.292,1338.38,153.932z"/> <path d="M3661.62,153.932c4.003-4.004,7.337,3.068,3.975,6.428C3661.591,164.364,3658.259,157.292,3661.62,153.932z"/> <path d="M1373.348,172.43c0-5.879-8.981-5.275-7.584-1.084C1367.457,176.423,1373.348,177.264,1373.348,172.43z"/> <path d="M3626.652,172.43c0-5.879,8.981-5.275,7.584-1.084C3632.543,176.423,3626.652,177.264,3626.652,172.43z"/> <path d="M1400.389,181.782c-4.855,0-5.251,0.677-2.402,4.107c1.876,2.258,4.49,4.107,5.812,4.107 C1406.472,189.996,1408.574,181.782,1400.389,181.782z"/> <path d="M3599.611,181.782c4.855,0,5.25,0.677,2.402,4.107c-1.876,2.258-4.49,4.107-5.812,4.107 C3593.528,189.996,3591.427,181.782,3599.611,181.782z"/> <path d="M1527.726,221.702c-1.063-2.772-5.005-4.331-10.949-4.331c-11.907,0-13.39,10.395-2.223,15.578 C1526.245,238.376,1532.181,233.307,1527.726,221.702z"/> <path d="M3472.274,221.702c1.063-2.772,5.006-4.331,10.949-4.331c11.907,0,13.39,10.395,2.223,15.578 C3473.755,238.376,3467.819,233.307,3472.274,221.702z"/> <path d="M1566.122,224.507c-5.176-1.987-4.189-2.114-10.041,1.296c-6.597,3.844-6.27,13.468,0.461,13.468 C1569.318,239.272,1576.351,228.435,1566.122,224.507z"/> <path d="M3433.878,224.507c5.176-1.987,4.189-2.114,10.041,1.296c6.597,3.844,6.27,13.468-0.461,13.468 C3430.682,239.272,3423.649,228.435,3433.878,224.507z"/> <path d="M1506.94,237.082c-5.246-5.246-13.141-3.988-13.141,2.093c0,5.119,7.249,11.047,13.509,11.047 C1511.265,250.223,1511.01,241.152,1506.94,237.082z"/> <path d="M3493.06,237.082c5.245-5.246,13.141-3.988,13.141,2.093c0,5.119-7.249,11.047-13.509,11.047 C3488.735,250.223,3488.99,241.152,3493.06,237.082z"/> <path d="M1598.007,239.367L1598.007,239.367c-7.253-3.881-11.024-3.554-12.816,1.113c-3.771,9.824,4.749,20.515,13.632,17.108 C1605.067,255.191,1604.514,242.851,1598.007,239.367z"/> <path d="M3401.993,239.367L3401.993,239.367c7.253-3.881,11.024-3.554,12.816,1.113c3.771,9.824-4.749,20.515-13.632,17.108 C3394.933,255.191,3395.486,242.851,3401.993,239.367z"/> <path d="M1544.443,250.223c-17.036-7.321-29.52,7.95-13.509,16.52c7.714,4.129,12.011,0.934,12.1-8.991 c0.023-2.636,1.583-4.878,3.463-4.983C1549.833,252.58,1544.172,250.223,1544.443,250.223z"/> <path d="M3455.557,250.223c17.036-7.321,29.52,7.95,13.509,16.52c-7.714,4.129-12.011,0.934-12.1-8.991 c-0.023-2.636-1.583-4.878-3.463-4.983C3450.167,252.58,3455.828,250.223,3455.557,250.223z"/> <path d="M1577.005,261.856L1577.005,261.856c-4.778-7.629-19.336-7.847-21.722-0.327c-2.182,6.875,7.325,16.939,14.638,15.497 C1576.593,275.713,1580.474,267.401,1577.005,261.856z"/> <path d="M3422.995,261.856L3422.995,261.856c4.778-7.629,19.336-7.847,21.722-0.327c2.182,6.875-7.325,16.939-14.638,15.497 C3423.407,275.713,3419.526,267.401,3422.995,261.856z"/> <path d="M1580.488,282.16c-2.973,2.976-2.082,13.25,1.46,16.791c9.132,9.133,22.987-0.257,18.38-12.456 C1598.052,280.465,1585.029,277.621,1580.488,282.16z"/> <path d="M3419.512,282.16c2.973,2.976,2.082,13.25-1.46,16.791c-9.133,9.133-22.988-0.257-18.381-12.456 C3401.948,280.465,3414.971,277.621,3419.512,282.16z"/> <path d="M1340.499,192.276c0-1.254-2.464-2.281-5.474-2.281c-6.276,0-7.35,4.171-1.637,6.363 C1337.416,197.905,1340.499,196.134,1340.499,192.276z"/> <path d="M3659.501,192.276c0-1.254,2.464-2.281,5.474-2.281c6.276,0,7.35,4.171,1.637,6.363 C3662.584,197.905,3659.501,196.134,3659.501,192.276z"/> <path d="M1403.175,225.35L1403.175,225.35c-5.204-3.297-12.7-3.118-14.846,0.354c-2.488,4.027,3.842,10.829,10.076,10.829 C1404.938,236.535,1408.317,228.606,1403.175,225.35z"/> <path d="M3596.825,225.35L3596.825,225.35c5.204-3.297,12.7-3.118,14.846,0.354c2.488,4.027-3.842,10.829-10.076,10.829 C3595.063,236.535,3591.684,228.606,3596.825,225.35z"/> <path d="M1429.46,241.985c-1.088-3.426-4.144-5.452-8.228-5.452c-8.838,0-11.089,4.724-5.298,11.123 C1424.178,256.763,1432.979,253.071,1429.46,241.985z"/> <path d="M3570.54,241.985c1.087-3.426,4.144-5.452,8.228-5.452c8.838,0,11.089,4.724,5.298,11.123 C3575.822,256.763,3567.021,253.071,3570.54,241.985z"/> <path d="M1466.425,266.451c0-5.844-7.358-10.303-14.37-8.705c-6.558,1.493-6.33,13.521,0.298,15.623 C1459.66,275.688,1466.425,272.363,1466.425,266.451z"/> <path d="M3533.575,266.451c0-5.844,7.358-10.303,14.37-8.705c6.558,1.493,6.33,13.521-0.298,15.623 C3540.341,275.688,3533.575,272.363,3533.575,266.451z"/> <path d="M1450.138,289.75c-5.369,6.472-1.436,12.487,8.171,12.487c7.641,0,8.395-0.751,7.615-7.529 C1464.914,285.944,1455.701,283.048,1450.138,289.75z"/> <path d="M3549.862,289.75c5.369,6.472,1.436,12.487-8.17,12.487c-7.642,0-8.395-0.751-7.615-7.529 C3535.086,285.944,3544.299,283.048,3549.862,289.75z"/> <path d="M1501.467,289.096c-4.745-4.744-17.729-4.074-19.682,1.02c-3.599,9.379,11.473,21.638,20.073,16.324 C1505.769,304.02,1505.525,293.153,1501.467,289.096z"/> <path d="M3498.533,289.096c4.744-4.744,17.729-4.074,19.682,1.02c3.599,9.379-11.473,21.638-20.073,16.324 C3494.231,304.02,3494.475,293.153,3498.533,289.096z"/> <path d="M1522.299,310.448c-10.233,0-8.413,13.844,2.313,17.593C1545.313,335.28,1535.378,310.448,1522.299,310.448z"/> <path d="M3477.701,310.448c10.233,0,8.412,13.844-2.314,17.593C3454.688,335.28,3464.622,310.448,3477.701,310.448z"/> <path d="M1575.896,325.471c-4.427-5.334-12.068-5.182-16.642,0.331c-3.103,3.741-2.871,4.975,1.556,8.214 C1571.603,341.904,1583.802,334.994,1575.896,325.471z"/> <path d="M3424.104,325.471c4.427-5.334,12.068-5.182,16.642,0.331c3.103,3.741,2.871,4.975-1.556,8.214 C3428.397,341.904,3416.198,334.994,3424.104,325.471z"/> <path d="M1503.836,336.911c-6.556,6.556,3.241,20.075,14.546,20.075c4.152,0,5.981-10.471,2.848-16.322 C1518.374,335.323,1507.723,333.026,1503.836,336.911z"/> <path d="M3496.164,336.911c6.556,6.556-3.241,20.075-14.546,20.075c-4.152,0-5.98-10.471-2.848-16.322 C3481.626,335.323,3492.277,333.026,3496.164,336.911z"/> <path d="M1558.999,349.459c-1.37-11.901-18.661-12.384-18.661-0.522c0,5.044,5.261,8.049,14.093,8.049 C1558.744,356.986,1559.686,355.433,1558.999,349.459z"/> <path d="M3441.001,349.459c1.37-11.901,18.661-12.384,18.661-0.522c0,5.044-5.26,8.049-14.093,8.049 C3441.256,356.986,3440.314,355.433,3441.001,349.459z"/> <path d="M1599.104,348.674L1599.104,348.674c-8.954-9.896-19.639-5.263-17.227,7.471 C1583.659,365.545,1613.314,364.375,1599.104,348.674z"/> <path d="M3400.896,348.674L3400.896,348.674c8.954-9.896,19.639-5.263,17.227,7.471 C3416.341,365.545,3386.686,364.375,3400.896,348.674z"/> <path d="M1487.87,357.963c-0.962-5.046-8.732-7.43-15.286-4.689c-6.258,2.618-3.833,11.718,3.624,13.589 C1491.152,370.614,1487.87,355.41,1487.87,357.963z"/> <path d="M3512.13,357.963c0.962-5.046,8.732-7.43,15.286-4.689c6.258,2.618,3.833,11.718-3.624,13.589 C3508.848,370.614,3512.13,355.41,3512.13,357.963z"/> <path d="M1635.865,361.925c0,0.296-2.288-4.938-9.39-4.938c-9.978,0-9.651,12.855,0.389,15.376 C1635.331,374.486,1639.809,369.294,1635.865,361.925z"/> <path d="M3364.135,361.925c0,0.296,2.289-4.938,9.39-4.938c9.978,0,9.651,12.855-0.389,15.376 C3364.668,374.486,3360.191,369.294,3364.135,361.925z"/> <path d="M1075.199,273.224c-9.733,10.36-6.048,15.82,9.986,14.792c12.908-0.829,13.032-0.925,13.032-10.416l0,0 C1098.218,264.828,1085.379,262.389,1075.199,273.224z"/> <path d="M3924.801,273.224c9.733,10.36,6.048,15.82-9.986,14.792c-12.908-0.829-13.031-0.925-13.031-10.416l0,0 C3901.782,264.828,3914.621,262.389,3924.801,273.224z"/> <path d="M1040.026,275.291c-5.032,5.032-4.191,7.619,3.418,10.513c9.201,3.498,15.561,0.654,14.541-6.498 C1057.017,272.527,1045.387,269.928,1040.026,275.291z"/> <path d="M3959.974,275.291c5.031,5.032,4.191,7.619-3.418,10.513c-9.201,3.498-15.561,0.654-14.541-6.498 C3942.983,272.527,3954.613,269.928,3959.974,275.291z"/> <path d="M998.412,280.55L998.412,280.55c-9.077-16.96-26.824,10.755-7.602,12.974 C999.654,294.544,1002.917,288.973,998.412,280.55z"/> <path d="M4001.588,280.55L4001.588,280.55c9.077-16.96,26.824,10.755,7.602,12.974 C4000.346,294.544,3997.083,288.973,4001.588,280.55z"/> <path d="M1041.548,300.982c-4.113,9.028,4.641,19.355,13.918,16.41c7.704-2.445,8.045-16.499,0.502-20.538 C1047.912,292.549,1045.011,293.38,1041.548,300.982z"/> <path d="M3958.452,300.982c4.113,9.028-4.641,19.355-13.918,16.41c-7.704-2.445-8.045-16.499-0.502-20.538 C3952.088,292.549,3954.989,293.38,3958.452,300.982z"/> <path d="M997.853,312.852c-5.398-3.422-7.184-2.988-13.426,3.253c-7.097,7.097-2.616,14.212,8.163,12.958 C1000.569,328.138,1004.222,316.891,997.853,312.852z"/> <path d="M4002.147,312.852c5.398-3.422,7.183-2.988,13.426,3.253c7.097,7.097,2.616,14.212-8.163,12.958 C3999.431,328.138,3995.778,316.891,4002.147,312.852z"/> <path d="M1121.601,319.891c-4.976,5.997,1.254,12.999,10.601,11.911c5.53-0.642,7.078-2.369,7.078-7.667 C1139.281,315.888,1127.311,313.015,1121.601,319.891z"/> <path d="M3878.399,319.891c4.977,5.997-1.254,12.999-10.6,11.911c-5.53-0.642-7.078-2.369-7.078-7.667 C3860.719,315.888,3872.689,313.015,3878.399,319.891z"/> <path d="M1012.081,326.692c-6.673,12.468,1.526,21.714,14.782,16.674c8.641-3.284,9.688-14.874,1.727-19.135l0,0 C1020.652,319.986,1015.24,320.792,1012.081,326.692z"/> <path d="M3987.919,326.692c6.673,12.468-1.526,21.714-14.782,16.674c-8.642-3.284-9.688-14.874-1.727-19.135l0,0 C3979.348,319.986,3984.76,320.792,3987.919,326.692z"/> <path d="M1047.197,336.187c-2.472,5.425-2.382,7.897,0.418,11.269c7.696,9.272,23.826-1.526,17.457-11.685 C1060.186,327.975,1050.841,328.193,1047.197,336.187z"/> <path d="M3952.802,336.187c2.472,5.425,2.382,7.897-0.418,11.269c-7.696,9.272-23.826-1.526-17.457-11.685 C3939.814,327.975,3949.159,328.193,3952.802,336.187z"/> <path d="M976.397,357.111c0,5.417,8.434,13.564,14.04,13.564c10.529,0,14.619-16.82,5.304-21.805 C985.72,343.508,976.397,347.479,976.397,357.111z"/> <path d="M4023.603,357.111c0,5.417-8.434,13.564-14.04,13.564c-10.529,0-14.619-16.82-5.304-21.805 C4014.28,343.508,4023.603,347.479,4023.603,357.111z"/> </g> </g> </svg>