<?xml version="1.0" encoding="utf-8"?>
<!-- Generator: Adobe Illustrator 15.1.0, SVG Export Plug-In . SVG Version: 6.00 Build 0)  -->
<!DOCTYPE svg PUBLIC "-//W3C//DTD SVG 1.1//EN" "http://www.w3.org/Graphics/SVG/1.1/DTD/svg11.dtd">
<svg version="1.1" id="Layer_1" xmlns="http://www.w3.org/2000/svg" xmlns:xlink="http://www.w3.org/1999/xlink" x="0px" y="0px"
	 width="792px" height="612px" viewBox="0 0 792 612" enable-background="new 0 0 792 612" xml:space="preserve">
<g>
	<path fill-rule="evenodd" clip-rule="evenodd" d="M137.745,186.764c2.624-6.397,8.008-10.035,11.84-15.224
		c15.24-7.224,32.338-15.402,51.591-19.451c22.63-4.761,48.031-3.568,72.734,0c2.168-9.591,3.023-33.162,14.378-38.904
		c7.868-3.981,19.171,4.35,28.754,10.148c8.058,4.875,14.998,8.66,21.144,12.685c7.406,4.851,13.459,10.038,19.452,15.224
		c10.152,8.784,21.107,14.543,28.756,24.527c4.214,0.354,8.982-0.104,14.376,0.846c10.53-26.001,28.797-49.133,46.517-70.198
		c2.987-3.548,5.596-7.392,8.459-10.994c1.283-1.619,7.023-8.6,8.455-10.15c4.608-4.986,17.076-18.543,18.607-20.297
		c7.1-8.141,14.825-14.55,22.076-20.474c7.526-6.145,16.154-10.95,26.13-17.585c3.779-2.512,6.587-4.948,10.995-7.61
		c4.897-2.956,10.479-4.706,18.607-4.229c7.062,10.684,9.027,20.756,18.607,31.294c3.765,4.144,7.953,7.7,12.685,11.84
		c13.067,11.431,13.539,19.394,2.537,33.83c-5.503,7.224-10.775,11.401-17.762,16.914c-2.433,1.92-3.84,4.883-6.766,5.074
		c-1.028,4.61-4.697,6.578-5.072,11.84c6.501,9.498,19.041,13.593,29.6,20.298c3.313,2.103,5.994,5.157,9.305,6.766
		c3.328,1.62,7.605,1.812,10.992,3.383c5.943,2.756,11.057,7.044,17.761,10.148c3.021,1.399,7.233,1.856,10.151,3.383
		c4.171,2.185,9.426,7.003,14.375,10.15c9.033,5.74,22.307,12.982,30.448,20.297c6.05,5.436,10.5,13.805,15.222,21.99
		c7.278,12.605,12.723,21.002,15.225,37.211c1.466,9.495,1.934,21.923,0.847,32.139c-0.331,3.114-1.907,5.675-2.537,9.304
		c-1.039,5.962-0.089,13.213-1.692,18.606c-0.946,3.18-3.882,6.872-5.073,10.148c-1.489,4.085-1.283,7.974-4.229,10.995
		c-2.877,21.291-10.616,36.24-16.914,54.972c-0.543,1.61,0.128,1.586-0.847,2.54c-2.532,2.471-2.704,9.491-4.229,13.531
		c-0.774,2.047-2.492,4.477-3.384,6.766c-4.229,10.83-10.045,14.516-22.836,19.45c-23.284,8.985-51.93,10.63-72.733,16.071
		c0.686,5.196,8.61,7.443,14.378,10.148c5.555,2.604,11.997,5.712,18.607,7.612c13.466,3.871,30.04,3.819,38.904,12.685
		c-7.67,8.211-21.725,8.193-30.448,13.531c-0.011,4.257,5.964,9.814,9.305,13.531c2.23,7.354,8.545,10.623,8.456,20.301
		c-29.066-3.362-58.864-13.301-85.418-21.99c-14.113-9.333-31.385-14.633-31.295-38.058c0.023-5.679,1.785-14.43,2.539-21.99
		c0.668-6.718,0.303-15.06,1.689-20.297c1.879-7.104,9.382-16.784,14.378-20.297c12.469-8.766,32.479-10.114,52.437-15.225
		c17.393-4.453,39.599-13.336,52.436-20.297c10.778-5.848,26.629-13.219,27.065-28.756c0.537-19.237-3.991-38.396-9.305-54.974
		c-5.238-16.353-11.921-31.345-20.298-43.979c-11.49-17.327-21.404-31.492-37.211-43.132c-2.966-2.183-6.146-4.572-9.305-6.767
		c-3.118-2.167-5.826-4.737-9.303-6.766c-13.187-7.688-33.194-17.231-38.058-33.829c-1.077-3.677-0.664-8.259-1.693-11.841
		c-0.822-2.874-2.805-6.344-4.229-9.302c-2.217-4.613-4.278-9.698-8.456-12.687c-4.797-3.433-12.984-1.963-16.914-8.457
		c-15.021,8.378-24.513,22.286-38.062,32.137c13.143-7.637,39.139-21.097,54.129-6.766c2.01,11.65-3.909,19.464-4.229,28.755
		c-0.224,6.573,1.687,14.984,2.54,21.989c0.908,7.49,4.622,17.31,4.226,21.99c-0.698,8.29-4.756,22.018-10.994,26.218
		c-0.926,0.625-9.186,3.725-10.992,4.228c-14.229,3.958-29.85,2.564-44.827,3.385c-19.839,1.085-37.696-5.671-54.972-8.458
		c-1.294,4.512,1.906,13.059,6.766,14.376c2.856,0.776,9.688-1.563,15.225-2.536c10.189-1.795,20.82-2.45,29.599,0
		c6.498,1.812,13.422,7.084,19.454,10.148c6.201,3.15,12.53,4.854,18.604,10.148c13.325,4.045,20.494,10.285,35.521,12.687
		c17.372,2.777,32.473-5.461,27.91,20.297c-0.885,5-3.707,11.701-5.92,17.761c-1.927,5.275-5.01,10.399-7.611,15.224
		c-5.53,10.256-10.489,21.678-17.762,27.91c-0.096,6.301-5.481,10.038-10.148,16.067c-12.815,16.57-26.866,35.538-45.67,47.363
		c-8.039,5.055-25.476,13.094-31.292,0c-3.355-7.558-0.402-16.329-5.076-23.684c-4.673-5.272-8.125-11.932-13.531-16.914
		c-4.611-4.25-11.294-7.63-16.067-12.685c-4.064-4.306-7.529-10.38-11.842-15.225c-2.164-2.434-4.614-4.292-6.766-6.766
		c-4.69-5.403-8.665-10.473-8.455-19.451c-6.208,13.524-12.822,26.646-19.452,39.748c-0.551,2.003,0.017,3.568,0,5.923
		c-0.076,10.069,4.714,31.591-1.691,45.67c-30.719,11.407-63.78,2.801-89.648-14.378c-10.02-6.652-19.458-15.548-28.756-23.681
		c-7.241-6.335-9.668-9.463-16.069-17.761c-5.709-7.402-9.355-13.156-7.612-27.065c2.885-0.496,1.376-5.39,5.074-5.073
		c1.511-1.593,2.289-3.916,4.229-5.075c12.994-4.688,23.44-8.972,32.983-16.068c6.914-5.141,11.212-12.634,16.916-19.452
		c6.452-7.712,12.772-15.692,21.144-21.144c7.779-5.067,21.73-9.872,37.213-10.995c6.75-5.09,9.778-13.901,22.835-12.687
		c2.168-2.06,1.179-7.278,4.228-8.457c-2.149-4.052-8.651-3.751-10.995-7.612c-37.936,10.53-83.333,12.349-105.718-13.531
		c-2.17-2.788,0.124-6.764,0-10.148c-4.512-0.284-7.404,1.051-10.994,1.691c2.044,6.13,6.534,9.816,10.994,13.531
		c2.173,4.921,3.352,8.708,5.921,12.687c6.31,9.77,22.565,16.907,22.835,27.909c0.246,9.987-15.371,18.323-27.064,22.835
		c-12.657,4.883-26.394,8.598-37.211,11.842c-27.637,8.283-50.945,11.394-71.889,26.216c-18.793,13.301-28.894,39.527-28.754,67.66
		c0.04,8.211,0.162,17.1,4.228,25.373c2.856,5.809,6.494,6.545,10.15,14.378c8.959,7.97,19.411,13.879,31.292,19.45
		c10.446,4.896,18.273,7.685,34.675,9.302c31.159,3.08,65.518,0.912,98.105,3.383c9.152,0.695,20.173,4.381,27.911,7.612
		c11.224,4.69,17.625,9.78,23.68,21.144c6.616,12.42,5.412,23.057-2.536,35.521c-4.192,6.573-9.851,10.189-14.378,15.225
		c-2.437,2.708-3.99,7.244-5.921,9.302c-1.968,2.1-6.127,4.288-9.304,6.766c-2.822,2.206-5.795,5.214-8.457,6.766
		c-8.854,5.173-21.035,7.292-32.983,10.995c-5.618,1.741-10.644,4.284-16.069,5.923c-6.026,1.816-11.99,2.085-17.761,3.383
		c-8.751,1.965-16.438,6.648-24.526,3.383c2.287-6.453,8.77-9.446,13.531-13.531c4.802-4.123,9.801-8.325,13.533-13.535
		c-4.879-4.704-14.235-4.935-18.607-10.148c3.613-5.822,11.446-3.913,16.916-5.072c7.323-1.556,15.325-4.945,22.835-7.612
		c7.615-2.705,15.345-4.849,21.988-7.612c4.534-1.886,7.726-5.758,12.687-5.919c-3.734-5.114-10.899-7.815-16.069-9.306
		c-12.243-3.521-31.722-1.886-46.515-2.536c-13.06-0.575-25.948-3.286-38.059-3.383c-17.353-0.142-33.829,0.224-50.745-1.693
		c-5.532-0.623-12.875-1.204-18.607-2.536c-4.18-0.971-8.392-4.36-13.532-6.766c-7.142-3.345-12.877-4.855-18.605-8.455
		c-5.99-3.766-15.231-11.663-19.452-18.607c-14.614-24.048-5.654-77.555,5.919-100.646c5.078-10.128,13.614-20.6,21.144-29.599
		c18.788-22.455,37.862-40.134,62.586-56.666c13.996-9.359,29.395-16.51,42.287-25.373c0.685-0.16,0.843-0.847,1.692-0.845
		c0.16-0.685,0.848-0.843,0.845-1.691c-5.775,1.848-12.335,0.468-19.452,0c-6.327-0.417-14.354,0.625-19.451-0.847
		c-4.438-1.28-12.458-8.108-14.378-11.84c-2.34-4.542-2.3-11.843-3.383-17.761C154.817,212.278,144.617,199.614,137.745,186.764z
		 M437.138,161.391c11.79-9.354,21.412-20.875,37.211-26.218c-13.734,13.189-34.32,26.18-38.904,44.825
		c18.298-15.532,35.77-31.891,55.819-45.67c7.033-11.275,18.724-16.808,28.755-24.526c5.176-3.981,9.805-9.33,15.225-13.533
		c5.503-4.267,12.251-7.042,18.607-10.148c1.996-4.883,7.186-5.52,10.995-8.457c2.743-2.118,4.557-5.243,6.766-6.766
		c5.562-3.839,10.848-2.665,17.761-4.229c-1.267-0.991-3.462-1.051-4.229-2.538c-5.113,0.456-9.281-0.621-13.531,0
		c-7.303,1.069-13.073,8.303-16.917,3.385c6.239-5.886,16.583-7.662,23.683-12.687c-3.778-0.607-5.771-2.586-9.305-2.538
		c-8.002,0.108-15.504,8.58-21.987,7.612c2.674-7.473,11.604-8.691,15.222-15.225c-7.888,0.007-10.489,5.296-17.762,5.921
		c2.172-6.567,11.381-6.098,14.379-11.84c-3.724-1.719-6.794,0.141-10.149-0.847c-5.303,2.385-14.938,11.792-21.144,5.074
		c5.517-8.863,21.419-7.335,25.373-17.759c-7.357-4.577-10.795,1.292-15.225,4.228c-4.883,3.238-7.808,4.176-10.994,6.766
		c-3.332,2.712-3.689,2.194-5.92,3.383c-3.551,1.895-5.334,4.611-8.458,6.768c-7.083,4.887-17.751,16.562-25.143,21.918
		c-11.99,12.852-24.647,27.007-28.983,32.209c-1.586,1.901-3.638,3.297-5.076,5.074c-1.583,1.958-12.141,15.025-14.378,17.761
		c-2.299,2.817-4.449,6.227-6.766,9.302c-7.396,9.825-14.632,20.455-18.604,32.139c19.791-19.895,36.726-51.61,59.201-63.431
		c-6.118,12.773-19.932,22.354-24.526,33.83c20.583-18.602,40.832-37.54,65.967-51.591c-9.254,7.814-20.049,15.404-28.756,22.835
		c-6.717,5.735-13.5,11.291-19.45,16.916c-2.863,2.705-7.068,6.062-6.766,10.148c5.644-6.299,12.892-10.647,19.45-16.069
		c6.226-5.145,11.887-12.39,20.297-15.223C480.055,123.118,452.242,139.566,437.138,161.391z M562.307,89.503
		c-5.593,5.967-8.807,14.311-15.222,19.452c-1.314-5.459,4.329-9.983,5.072-16.069c-5.732,1.315-7.03,7.067-10.995,10.149
		c-2.333,0.363-0.791-3.152-2.536-3.383c-2.01,4.066-11.617,4.524-8.458,10.995c3.107,0.288,0.784-4.854,5.075-3.383
		c-0.168,4.679,4.013,5.009,5.919,7.611c2.863,0.325,1.332-3.743,5.076-2.537c0.844,7.898,5.485,11.992,8.456,17.761
		c3.462-4.843,3.637-9.949,6.769-14.378c7.854-11.112,24.093-15.257,28.753-29.601c-14.11,1.681-18.9,17.181-28.753,20.297
		c3.879-11.628,17.275-18.239,18.604-29.601C574.161,81.06,569.24,86.287,562.307,89.503z M320.425,145.322
		c-8.975-3.428-18.282-6.525-31.292-5.919c0.638,3.874,3.343,5.677,4.229,9.302c4.511,3.101,13.189,2.036,14.378,8.457
		c-5.176,6.005-14.627-5.956-21.144-1.69c0.628,10.083,15.315,6.108,16.914,15.223c-5.258,0.38-10.123,1.153-15.223,1.691
		c2.378,8.053,14.28,6.582,18.605,12.686c-6.198,4.149-19.481-2.111-24.526,4.228c5.554,9.268,19.817,3.042,26.218,8.458
		c-1.747,9.247-20.127,1.862-24.526,8.458c2.691,2.082,6.524,3.883,10.995,5.074c4.42,1.177,10.898-0.179,12.687,4.229
		c-1.52,2.146-8.172-0.843-8.459,2.537c16.916,3.302,38.359,2.911,53.282,4.229c2.879,0.253,7.462,4.277,8.457-0.847
		c-7.075-4.154-15.212-5.986-23.68-5.919c-3.311,0.024-8.333,2.915-10.995-0.846c1.617-0.356,3.641-0.307,3.383-2.538
		c-14.362-10.26,5.468-17.747,19.452-14.376c1.031-5.964-8.127-8.684-10.148-14.378c-7.057-2.812-11.978-7.756-17.761-11.841
		c-3.813-0.979-9.987,0.402-10.148-4.228c3.173-2.593,8.261-0.972,10.993,0c3.326,1.182,6.067,5.105,10.15,7.611
		c3.966,2.437,9.383,3.713,12.687,5.921c5.429,3.632,9.221,9.684,16.067,10.148c-4.549-8.409-9.529-16.476-16.067-22.835
		c-3.562-3.462-10.365-4.803-10.995-10.995c17.621,4.086,23.003,20.411,40.596,24.528c-5.195-12.284-13.829-21.129-24.526-27.911
		c0-0.845,0-1.69,0-2.537c-17.671-11.648-34.407-24.232-54.974-32.983c-0.564,0-1.129,0-1.691,0
		C297.082,132.58,315.529,132.176,320.425,145.322z M508.181,139.402c-16.866,5.628-41.871,21.12-49.899,31.292
		c7.836-3.289,16.873-13.96,27.063-9.304c-2.051,2.478-11.628,1.875-9.302,5.92c2.736-1.853,9.99-1,10.995,1.691
		c0.189,22.463-28.697,15.846-40.598,26.218c8.373-1.244,17.444-3.868,26.22-5.074c9.577-1.316,21.006-3.156,27.909,0
		c-20.523,6.539-50.013,4.112-63.431,17.761c9.516,1.607,18.783-2.853,27.909-4.229c5.947-0.896,12.097-0.363,17.761-0.845
		c4.591-0.392,10.272-3.071,13.531,0.845c-5.113,4.589-13.143,2.939-20.297,3.383c-3.534,0.22-7.202,1.564-10.995,0.847
		c-3.672,3.89-18.669,3.148-22.837,9.302c22.046-3.773,42.226-7.729,65.971-6.766c5.902,3.962,14.99,4.744,21.987,7.612
		c-1.821-7.376-10.311-5.467-16.068-10.148c6.7-2.64,17.097,3.176,18.607-5.075c-5.637-5.359-11.483-1.203-18.607-5.074
		c4.103-5.485,16.509-2.662,15.225-13.533c-4.9-3.274-13.118-3.233-21.144-3.383c3.882-6.547,17.905-2.955,21.144-10.148
		c-1.411-8.351-13.328-1.016-15.225-8.458c3.92-4,6.68-0.566,12.686-0.846c3.837-3.499,1.582-8.862-0.844-12.687
		c-4.329-1.076-6.676,1.082-10.148-0.845c1.748-4.733,9.983-2.983,14.375-5.074C527.49,134.129,513.085,137.766,508.181,139.402z
		 M570.765,146.168c4.34,6.957,10.152,10.851,16.914,15.223c7.946,5.138,15.94,9.272,23.681,14.378
		c4.273,2.818,10.131,5.86,11.842,10.148c-18.058-3.932-28.378-15.602-44.824-21.144c4.378,5.841,9.825,10.346,15.222,15.224
		c5.771,5.21,12.464,9.182,18.606,14.378c3.063,2.59,5.252,6.914,8.459,10.149c5.286,5.327,11.56,9.694,16.068,15.223
		c23.779,29.157,44.981,70.064,46.517,118.405c0.058,1.834-3.108,6.924,0.846,8.455c4.856-12.974,3.47-27.545,1.69-42.287
		c-0.702-5.823-3.249-11.556-5.073-16.913c-1.638-4.813-6.49-13.75-1.692-16.069c2.808,0.616,2.453,4.345,3.383,6.766
		c0.84,2.18,2.625,4.572,3.383,6.766c4.903,14.197,3.534,32.637,10.995,44.824c-0.279-5.603,2.805-9.367,3.383-14.378
		c1.507-13.062-2.994-27.154-6.766-38.903c-3.927-12.239-10.975-22.88-11.842-33.83c10.293,7.469,12.079,23.446,18.607,34.675
		c-0.354,6.385,3.004,16.085,5.922,21.99c4.726-25.573-11.353-45.009-11.841-67.66c9.508,11.222,12.223,33.242,17.76,45.67
		c3.683-21.14-8.107-39.159-16.07-57.51c-5.586-4.613-9.757-11.525-16.068-16.915c-7.828-6.685-19.502-13.493-30.445-20.298
		c-12.003-7.461-25.366-15.541-37.215-21.144c-4.539-2.147-8.645-3.03-13.531-5.074c-9.491-3.97-18.813-11.074-27.909-13.532
		C570.765,143.913,570.765,145.041,570.765,146.168z M229.085,208.752c-1.845,0.153-2.689-0.692-2.537-2.536
		c4.713-5.622,12.854-7.366,20.297-10.15c1.822-0.68,2.994-1.896,5.074-2.536c6.158-1.893,12.175-3.096,16.069-6.766
		c-7.478,0.937-13.993-0.874-20.297,0c-9.314,1.291-16.472,8.471-25.373,6.766c5.577-7.391,18.569-7.368,25.373-13.532
		c-19.755-1.992-33.512,6.518-47.362,7.611c0.647-3.168,4.107-3.008,6.766-4.228c15.27-7.013,35.503-11.351,54.127-15.224
		c-4.379-6.052-15.545-3.772-25.373-4.228c-9.345-0.435-18.454-1.168-25.372-1.691c15.913-7.22,38.808-6.516,59.202-4.229
		c-1.963-3.6-6.631-3.705-10.148-4.229c-11.682-1.74-26.492-0.836-38.058,0c-16.879,1.223-36.28,7.115-49.054,11.841
		c-10.892,4.03-15.994,7.27-22.835,13.532c-2.882,2.639-7.939,5.787-5.075,10.148c6.706-6.545,11.052-15.448,22.835-16.914
		c-3.323,5.986-11.624,11.485-10.149,19.452c3.645-3.414,10.653-7.941,15.223-7.612c-3.794,7.074-13.432,12.291-10.994,22.835
		c4.068-0.725,4.395-5.189,9.302-5.074c-0.354,8.665-4.146,13.896-5.074,21.99c6.59-3.904,11.707-13.583,20.298-12.687
		c-4.572,9.806-13.607,15.148-18.607,24.526c0.155,5.766-1.232,13.074,4.229,13.531c1.287-5.761,5.229-8.867,7.612-13.531
		c2.39,0.698,2.19-1.192,4.228-0.847c4.616-5.459,11.502-10.207,17.761-13.531c10.166-5.401,26.36-12.939,38.904-15.223
		c6.611-1.205,15.455,0.729,20.298-5.075C248.995,199.404,237.564,204.783,229.085,208.752z M452.362,184.226
		c6.766-2.094,15.979-6.485,21.144-5.074c1.335-2.891,5.138-3.318,5.072-7.612C468.389,174.318,458.048,176.946,452.362,184.226z
		 M400.77,185.917c-3.015-1.213-4.99-3.465-8.455-4.228c-0.564,0-1.129,0-1.691,0c-5.388,5.553-13.278,15.292-16.069,24.527
		c-1.11,3.67-1.674,9.223,0,12.686c-0.678-2.338,3.167-4.935,4.228-9.303c1.729-7.124,0.996-12.439,8.459-11.84
		c1.504,9.376-9.992,19.234-1.693,27.063c4.083-9.515,3.476-25.01,14.376-26.218c-0.371,12.712-6.729,18.908-1.689,29.601
		c2.953-15.882,11.26-31.591,21.99-42.287c-4.36-0.11-10.878,9.405-16.071,8.458c-1.899-3.42,4.109-5.193,4.229-9.304
		C404.184,184.469,403.87,184.386,400.77,185.917z M411.765,204.525c-2.026,3.148-6.896,18.065-1.689,19.452
		c0.675-7.962,5.747-12.494,4.226-20.299c1.865,0.358,4.667-2.533,2.54-3.383C416.19,201.787,413.169,202.341,411.765,204.525z
		 M333.111,206.216c8.466,3.572,13.081,5.084,24.526,3.383C356.409,201.373,337.573,201.225,333.111,206.216z M224.857,221.439
		c-7.103-6.394-16.508,2.572-23.681,5.921c5.995,2.032,21.384,0.867,27.909,5.074c-4.684,3.007-12.23,1.309-19.452,1.691
		c-7.244,0.382-19.599,1.141-22.835,5.921c11.072,4.714,31.648-0.076,42.287,5.074c-8.222,3.56-23.487,0.972-32.983,2.536
		c-1.091,0.181-4.452,0.349-4.229,2.538c22.833,10.917,68.219-0.361,87.112,14.378c-1.12-6.774-6.2-9.588-13.531-10.15
		c-4.833-6.922-17.615-2.466-20.299-10.148c3.195-3.856,11.774,0.275,15.224-1.691c-7.421-4.006-18.812-1.976-24.528-5.919
		c2.813-6.143,14.672,0.446,18.607-1.693c-7.571-6.919-19.895-2.308-28.756-8.457c2.19-4.876,9.021-0.945,14.378-3.383
		C234.988,222.583,231.31,220.625,224.857,221.439z M406.688,242.583c-1.362,2.247,0.823,8.173,4.229,8.457
		c0.262-2.561,2.619-3.021,1.693-6.766C410.815,243.427,408.843,240.531,406.688,242.583z M388.085,246.812
		c0.729,6.163-2.231,10.771,1.691,13.531c1.003-5.763,7.669-5.862,10.146-10.148C398.853,246.523,392.519,244.389,388.085,246.812z
		 M412.611,274.721c0.98-2.771,5.245-3.268,5.919,0c-1.645,6.972-10.664,9.577-7.612,18.605c6.566-2.173,5.203-12.275,13.531-12.687
		c0,0.85,0.686,1.008,0.847,1.693c-3.052,7.877-8.028,16.818-10.148,26.216c-1.17,5.192-1.92,12.123,0,16.914
		c5.069-4.993,7.059-19.396,10.995-26.216c1.583-2.743,2.812-7.509,6.766-6.766c0.011,1.118,1.483,0.772,1.693,1.691
		c-0.337,5.718-6.418,9.395-2.54,14.376c-1.604,1.497-2.622,3.579-4.229,5.075c0.166,6.625-6.861,17.754-0.843,21.987
		c4.074-5.479,3.676-21.313,11.838-25.37c0.128,1.563,2.867,0.517,3.383,1.69c-2.897,9.347-8.214,20.365-5.919,32.139
		c4.45-1.752,4.236-8.167,8.459-10.148c0.142-2.396,1.549-3.524,1.689-5.92c13.531-15.792,26.172-32.467,42.287-45.669
		c0.613-2.588-1.459-2.488-0.847-5.076c3.5-3.266,9.254-4.281,11.842-8.457c-10.837-1.748-22.479-2.449-32.139,0.847
		c-0.203-1.208-1.394-1.427-1.689-2.538c3.807-6.153,12.172-3.458,16.067-8.457c-11.576-8.479-23.569,8.113-32.985,4.228
		c0.816-5.389,6.986-5.42,7.612-10.993C440.266,252.569,413.657,256.606,412.611,274.721z M377.09,253.578
		c-3.078-1.974-8.202-0.673-10.993-0.847c-1.582,5.969,8.431,7.239,11.84,10.995c1.075-2.025,3.087-3.114,2.536-6.766
		C376.846,259.93,378.754,254.645,377.09,253.578z M392.314,267.109c1.691,0,3.383,0,5.072,0c1.569-1.813,2.261-4.505,2.536-7.612
		C394.84,259.486,392.934,262.656,392.314,267.109z M223.166,261.19c-5.248,2.559-10.08,5.933-15.224,9.302
		c-8.023,5.255-17.635,9.092-25.372,13.531c-9.054,5.196-17.939,11.547-23.682,17.761c4.648-2.116,9.552-3.98,16.069-4.228
		c-9.823,8.781-26.6,10.612-32.139,23.681c9.306-1.139,18.322-6.651,27.91-10.151c16.688-6.088,36.466-11.534,54.128-16.068
		c13.258-3.403,24.957-6.74,36.367-12.685c4.8-2.502,12.886-4.949,11.84-11.842c-3.204-2.691-3.848,2.398-5.074,3.383
		c-13.731,11.029-37.64,15.446-58.356,18.607c-3.865,0.588-9.053,3.966-12.685,0c8.545-6.062,21.075-5.898,31.292-9.304
		c10.684-3.562,20.59-9.193,26.218-16.914c-11.862-3.383-16.03,4.96-24.527,8.457c-4.935,2.03-10.527,3.765-15.224,5.074
		c-5.857,1.633-12.506,3.392-16.068,1.691c9.787-7.127,23.412-10.418,32.137-18.607C229.009,261.546,225.16,262.294,223.166,261.19z
		 M383.855,279.795c-3.532,0.714-3.994-1.643-6.766-1.691c-0.792-4.78-7.893-6.071-11.84-5.074
		c-5.107-5.276-11.109-3.546-18.605-3.383c-0.487,5.948,13.13,9.34,9.302,18.605c-8.724-3.961-14.173-11.198-25.371-12.687
		c-0.246,5.885,8.987,2.289,7.61,9.304c-6.566-0.2-10.086-3.445-16.069-4.229c-0.1,2.437-3.606,1.47-3.383,4.229
		c7.738,1.566,14.03,4.577,18.607,9.304c-5.023-1.299,0.481,3.101-2.538,4.228c-7.321-3.278-24.177-11.238-30.445-2.536
		c14.002,5.167,27.414,10.926,40.596,16.915c2.848,4.935,9.372,7.626,13.531,11.841c2.832,2.867,4.104,8.456,8.457,7.609
		c-1.108-0.011-1.077-2.344,0-2.536c7.01,2.295,8,10.609,14.378,13.531c8.987-9.179-2.003-18.79-6.766-26.217
		c1.251-0.44,2.132-1.252,3.383-1.692c4.2,1.438,4.997,6.28,9.304,7.612c3.183-10.046-5.236-15.556-7.612-22.833
		c3.827-1.518,7.728,1.784,10.148,4.226C387.899,294.171,387.545,287.582,383.855,279.795z M499.722,278.951
		c-7.165,6.521-18.893,14.812-27.909,25.37c-1.407,1.651-1.91,4.102-3.383,5.922c-5.148,6.354-12.292,11.539-16.067,16.915
		c-1.741,2.471-4.274,9.384-5.923,11.838c-4.388,6.542-5.795,10.988,1.693,15.225c2.822-4.735,4.622-11.374,7.612-16.914
		c2.533-4.701,6.16-11.876,11.838-10.995c-2.674,11.422-10.981,21.715-9.302,34.675c1.783-6.673,6.982-9.932,8.455-16.914
		c7.688-10.355,16.818-19.269,23.684-30.446c4.602-3.293,9.082-6.703,11.838-11.841c3.166-0.881,5.943-4.307,8.459-6.766
		c2.382-2.326,6.099-5.166,5.919-7.61c-4.511,1.483-15.296,3.938-16.067-2.538c6.632-4.696,12.822-0.981,19.45-5.919
		C513.959,276.492,507.231,278.453,499.722,278.951z M542.009,300.094c7.51-2.084,16.15-7.524,23.681-6.768
		c-6.064,7.469-17.627,9.438-25.37,15.223c8.301,1.373,16.76,0.533,24.526-0.847c1.906-5.183,3.875-13.714,1.689-20.295
		C555.65,288.364,545.856,294.915,542.009,300.094z M520.865,297.556c-2.604-1.543,1.7-4.741-0.847-5.921
		c-25.813,21.829-46.822,48.464-63.431,79.499c1.553,0.967-0.736,5.709,2.54,6.766c7.798-12.217,12.138-27.893,25.369-34.675
		c0.289,7.554-6.38,11.549-9.302,16.914c-3.097,5.691-3.142,12.454-7.612,17.761c0.438,8.331-4.157,11.632-3.383,20.301
		c1.962-1.164,2.653-4.182,3.383-5.923c3.039-7.23,5.864-14.299,10.995-19.45c6.298-19.076,19.912-30.835,28.756-47.363
		c8.204-8.146,15.782-16.921,23.68-25.37c5.035-3.707,11.168-6.313,15.225-10.995C534.021,288.16,531.069,296.482,520.865,297.556z
		 M368.633,346.607c-6.174-9.612-10.472-13.046-18.605-20.297c-13.375-11.921-33.034-22.316-54.129-21.144
		c0.418,2.674-4.197,0.313-3.383,3.383c4.069,7.773,17.191,6.49,21.144,14.378c-5.72,0.629-10.813-3.823-15.223-1.69
		c14.853,6.054,31.004,14.63,42.287,22.834c4.3,3.128,9.002,6.181,12.687,9.302c6.532,5.54,9.479,12.544,15.223,17.761
		C375.094,361.688,374.507,355.758,368.633,346.607z M403.306,318.698c-0.12-3.263,0.661-7.427-1.689-8.456
		C402.425,312.813,399.807,318.818,403.306,318.698z M535.243,318.698c4.663,3.514,11.897,4.453,16.068,8.459
		c-5.197,2.522-13.188-0.792-17.761,0.846c3.905,5.682,11.397,7.774,19.453,9.303c1.783-7.809,8.944-14.729,7.612-22.837
		C555.774,319.496,542.891,316.479,535.243,318.698z M518.329,331.386c-2.581,0.045-2.03-3.045-5.076-2.539
		c-3.826,5.98,1.576,15.369,10.995,13.534c4.119-5.685,2.54-18.954-3.383-21.99C515.775,322.962,521.653,329.452,518.329,331.386z
		 M356.793,366.062c-6.537-8.016-14.029-12.737-21.99-18.607c-8.28-6.105-14.915-12.11-24.526-16.068
		c-6.972-2.873-14.306-3.62-20.297-5.075c-3.966-0.964-8.22-4.574-10.995-1.69c-0.046,1.081-1.084,1.171-0.847,2.537
		c6.337,4.095,16.367,4.494,19.452,11.838c-6.817,3.896-14.598-3.301-22.835-4.227c-7.693-0.867-11.957,0.616-15.223,4.227
		c42.758,11.37,72.07,36.186,101.488,60.895c-2.292-10.679-12.8-17.641-15.223-25.373c10.425,2.825,15.105,11.395,21.99,17.761
		C366.697,380.611,363.61,374.42,356.793,366.062z M529.324,344.918c3.042,5.131,5.21,11.139,9.302,15.221
		c3.108-5.919,10.638-11.907,10.148-18.604c-4.621,1.503-11.642-1.88-16.067-3.383C531.496,340.323,531.296,343.507,529.324,344.918
		z M518.329,348.301c-5.953-0.534-5.806-7.162-11.842-7.612C505.686,347.423,513.656,349.853,518.329,348.301z M238.389,349.146
		c5.96-0.244,9.742-2.663,15.223-3.383C251.49,340.599,236.517,340.522,238.389,349.146z M501.415,349.99
		c1.58,0.674,3.098,1.414,5.072,1.693c-0.296-2.805-2.532-3.669-4.229-5.076C501.993,347.753,501.058,348.225,501.415,349.99z
		 M240.08,353.373c-0.845,5.358,3.133,5.888,3.383,10.151c7.008-1.734,7.784-9.697,12.687-13.534
		C250.304,350.63,246.206,353.015,240.08,353.373z M640.961,428.646c3.053-5.406,15.752-1.163,16.068-9.302
		c-4.684-2.971-12.699,2.588-14.375-3.383c8.944-1.869,24.454-4.746,31.292-9.306c2.138-1.425,4.814-2.987,2.536-5.919
		c-10.654-4.753-21.401,9.419-28.756,2.536c8.993-4.639,19.224-8.954,27.063-13.531c6.741-3.934,11.538-5.562,9.305-13.531
		c-6.194,3.699-13.837,9.907-21.144,13.531c-2.949,1.462-8.706,4.408-11.841,1.693c4.167-4.856,10.544-7.503,16.914-10.152
		c8.975-8.789,22.313-17.716,23.683-31.292c-31.581,33.543-86.022,44.225-134.474,60.895c1.229,0.461,4.371-0.988,4.229,0.847
		c-5.86,1.762-14.956,4.766-15.225,9.302c8.384-3.369,24.661-7.678,36.368-6.766c1.666,0.131,5.275,0.12,5.919,2.536
		c-12.437,3.771-32.152,5.038-41.44,11.842c-1.913,1.4-7.296,6.001-4.229,9.302c3.958-5.31,14.719-7.196,23.68-7.608
		c3.854-0.18,10.645-1.707,11.842,2.536c-3.854,3.225-9.618,1.81-14.378,3.383c-7.378,2.437-13.266,7.678-17.761,12.685
		c8.407-0.393,18.346-10.073,28.756-5.072c0.196,4.425-5.189,3.266-9.305,3.383c-6.232,2.611-14.059,6.645-19.451,11.838
		c-4.546,4.377-9.715,10.307-8.459,16.918c7.169-18.772,30.614-21.261,49.054-28.756c12.533-0.692,27.93-2.891,41.443-5.923
		c13.314-2.983,26.918-6.921,32.982-14.378C656.221,428.415,645.748,432.458,640.961,428.646z M439.674,371.98
		c3.441-5.706,6.687-15.042-1.689-17.761C435.514,359.147,436.226,368.194,439.674,371.98z M515.793,358.449
		c4.508,4.512,8.26,9.78,10.992,16.067c3.207-1.865,5.399-4.749,6.766-8.455C530.862,358.999,522.782,349.254,515.793,358.449z
		 M246.846,368.598c2.273,1.111,3.037,3.73,5.074,5.076c5.436-4.715,10.231-10.07,16.069-14.378
		c0.186-1.063,1.318-1.731-0.845-1.693C259.731,360.624,250.438,361.76,246.846,368.598z M509.023,374.517
		c2.558,5.551,3.08,12.22,7.612,16.071c3.07-2.85,5.785-6.057,6.767-10.995c-5.431-8.104-13.518-18.05-22.834-19.454
		C503.497,364.423,506.663,369.389,509.023,374.517z M283.214,378.746c-0.019-7.63,6.22-9.003,7.61-15.222
		c-1.143-0.268-1.616-1.204-3.383-0.846C287.032,368.243,278.912,373.979,283.214,378.746z M255.303,377.899
		c2.994,1.521,3.254,5.771,6.767,6.769c0.236-4.556,4.837-4.749,5.075-9.305c2.892-3.028,7.695-4.144,7.61-10.148
		C266.982,368.153,258.937,370.82,255.303,377.899z M286.597,384.668c3.68,8.253,20.707,8.673,26.218,1.69
		c0.845-3.947,1.12-8.466,2.536-11.842c-4.365-1.979-9.15-7.567-13.531-6.766c-3.175,1.057-1.5,6.958-5.074,7.612
		c-2.652,0.396-2.385-2.127-3.383-3.383c0.134-2.269,6.691-5.682,2.536-6.766C291.741,370.642,288.704,377.19,286.597,384.668z
		 M491.264,393.124c-5.148-3.59-6.646-10.83-11.839-14.378c-5.706,12.313-4.105,32.259,0,45.67
		c8.782-5.135,13.813-10.069,21.144-16.914c4.071-3.803,9.832-7.802,10.148-11.842c0.341-4.326-5.251-11.862-8.459-16.067
		c-3.795-4.979-7.784-9.653-12.685-11.842c-0.564,0-1.129,0-1.693,0C486.924,375.019,492.685,382.604,491.264,393.124z
		 M264.606,388.895c3.154,0.513,3.443,3.889,6.766,4.229c5.406-2.694,6.16-11.697,2.538-16.914
		C271.097,380.729,266.52,383.478,264.606,388.895z M321.271,383.822c-2.807,11.852-19.734,9.584-19.452,24.526
		c10.609,7.15,26.092,9.429,41.44,11.838C345.708,401.837,338.788,382.318,321.271,383.822z M275.602,397.354
		c2.658,1.005,4.475,2.853,7.612,3.383c1.022-2.644,3.651-3.679,4.228-6.766C282.209,389.872,277.479,390.457,275.602,397.354z
		 M135.208,446.406c-10.021-3.231-13.987-12.513-19.452-20.297c2.006,24.502,24.265,35.287,40.596,48.206
		c5.553,2.34,13.297,2.491,16.068,7.612c-6.472,2.784-14.056-1.191-19.452-4.229c-5.692-3.207-9.897-9.137-16.068-10.148
		c-3.574-5.193-9.455-8.005-13.533-12.685c-5.749-6.601-9.424-14.495-14.378-21.99c-2.562-7.867-3.902-16.959-6.766-24.526
		c-2.715,18.527,3.381,33.137,9.304,43.977c1.779,3.256,3.841,7.653,5.074,9.306c2.248,3.004,9.57,4.873,5.074,10.148
		c-21.87-15.642-32.149-42.391-30.445-79.502c-2.495,2.502-4.252,6.783-5.076,10.148c-1.767,7.24-2.649,17.901-2.536,26.22
		c0.196,14.408,4.72,25.728,10.148,38.904c-9.125-4.126-11.186-15.314-15.223-24.526c-1.872,11.659,3.416,21.412,6.766,30.445
		c5.136,5.32,9.67,9.439,15.223,13.531c4.775,3.521,7.729,5.568,13.533,8.459c3.249,1.617,6.79,4.153,9.302,5.076
		c6.473,2.374,15.431,2.43,23.682,4.226c2.708,0.592,5.05,2.22,7.612,2.54c6.485,0.809,15.677,0.247,21.144,0.843
		c8.154,0.892,17.09-0.829,25.372,0c14.595,1.466,34.988,1.962,48.208,0.847c20.393-1.717,40.69,3.51,52.436,8.459
		c10.654,4.487,15.833,8.848,21.144,17.761c-1.716-17.733-13.191-24.055-24.526-31.292c-2.565-1.639-4.928-3.534-7.612-5.076
		c-2.614-1.501-7.535-1.655-7.61-5.919c7.351-0.189,13.863,2.64,19.452,5.919c8.884,5.217,18.094,10.867,23.68,17.761
		c4.09,5.049,5.042,12.262,10.148,16.914c-0.331-3.94,1.346-6.343,0.847-10.148c-0.504-3.841-3.013-10.349-5.074-13.531
		c-3.018-4.66-10.727-9.278-15.225-12.685c-7.339-5.565-13.321-7.616-17.761-12.688c7.351,0.915,14.256,4.426,18.607,6.766
		c2.355,1.267,5.186,1.535,6.766,2.54c7.925,5.031,11.682,13.565,18.605,18.604c0.291-5.926-4.487-6.786-4.228-12.685
		c-4.513-3.163-7.445-8.029-12.687-10.995c-4.312-2.44-10.477-2.237-13.531-6.766c1.111-3.689,4.583-1.377,6.766-0.847
		c9.315,2.261,16.277,8.042,22.835,10.995c0.108-4.681-5.291-6.404-8.457-8.459c-9.452-6.129-21.171-11.56-35.521-12.685
		c-38.915-3.056-89.604,1.421-125.17-8.459c-10.804-5.237-22.618-12.014-31.292-17.761c-6.196-4.103-9.097-8.728-14.378-10.991
		C128.431,439.1,136.587,441.626,135.208,446.406z M290.824,396.507c-1.263,0.991-0.996,3.514-3.383,3.383
		c-0.053,5.131,4.129,6.019,8.457,6.766c2.118-2.65,2.889-6.315,3.383-8.455C295.379,398.72,294.415,396.3,290.824,396.507z
		 M350.027,420.187c2.254,0,4.51,0,6.766,0c1.287-8.346-2.86-15.73-6.766-16.067C352.097,408.187,350.44,415.792,350.027,420.187z
		 M464.2,421.88c1.576,0.809,2.829-2.533,3.383,0c0.447,3.087-3.713,3.799-1.689,5.919c2.646-0.172,6.208,0.571,7.612-0.847
		c-0.021-7.637-1.89-13.201-4.229-20.297C467.17,411.125,460.845,414.625,464.2,421.88z M607.133,488.693
		c-1.982,0.275-0.822,3.688-2.539,4.229c-10.796-3.021-21.23-10.906-32.139-10.995c3.241,4.652,9.797,5.991,13.534,10.148
		c-5.978,3.193-15.396-4.928-21.99-2.536c5.534,3.868,18.438,6.001,17.761,12.685c-7.478-0.698-11.906-4.442-19.453-5.072
		c-3.617-2.599-8.886-8.012-12.686-7.612c17.934,23.79,56.218,27.228,87.957,37.211c-4.662-13.38-15.358-20.724-21.989-32.139
		c9.835-3.979,22.867-4.76,30.448-10.995c-15.41-2.915-31.313-5.338-43.98-10.991c-9.677,8.094-18.149-4.199-28.756-3.387
		C582.654,477.646,596.3,481.766,607.133,488.693z M235.006,556.354c5.102,2.509,12.469,2.753,17.761,5.072
		c-0.239,4.085-4.238,6.697-6.766,9.306c-6.829,7.041-13.414,13.152-21.144,18.604c17.121-2.33,30.036-8.864,46.515-11.838
		c9.486-6.948,21.57-11.216,30.447-17.761c2.739-2.021,6.342-5.09,7.612-8.459c-3.963,1.025-9.407,4.955-15.225,6.766
		c-4.968,1.545-13.942,5.3-15.223-1.689c9.037-1.305,17.41-5.317,22.835-8.459c4.913-2.843,11.888-4.587,12.687-10.148
		c-12.356,6.298-28.99,14.261-43.134,13.531c0.545-4.343,5.947-5.578,9.304-6.766c8.101-2.866,17.022-5.675,23.682-10.148
		c-0.334-1.456,1.254-2.168,0-2.536C283.592,543.159,256.524,547.915,235.006,556.354z"/>
</g>
</svg>
